<svg id="svg" version="1.1" xmlns="http://www.w3.org/2000/svg" xmlns:xlink="http://www.w3.org/1999/xlink" width="400" height="400" viewBox="0, 0, 400,400"><g id="svgg"><path id="path0" d="M86.473 167.000 C 85.971 168.101,84.400 168.397,84.400 167.391 C 84.400 166.846,84.302 166.846,83.468 167.392 C 82.956 167.728,82.387 167.867,82.204 167.701 C 82.021 167.536,82.001 167.625,82.159 167.900 C 82.318 168.175,82.249 168.400,82.007 168.400 C 81.765 168.400,81.180 168.760,80.708 169.200 C 80.236 169.640,79.433 170.000,78.925 170.000 C 78.416 170.000,78.045 170.135,78.100 170.300 C 78.155 170.465,78.029 170.634,77.820 170.677 C 77.610 170.719,77.200 171.574,76.907 172.577 C 76.615 173.579,76.207 174.400,76.000 174.400 C 75.794 174.400,75.728 174.668,75.854 174.997 C 75.986 175.340,75.805 175.700,75.430 175.844 C 75.010 176.005,74.861 176.361,75.012 176.837 C 75.269 177.648,73.818 183.264,73.011 184.580 C 72.734 185.031,72.283 186.246,72.008 187.280 C 71.368 189.685,70.581 190.369,68.122 190.660 C 63.899 191.160,61.527 196.767,65.526 196.794 C 67.348 196.806,68.023 197.493,67.804 199.115 C 67.481 201.516,67.039 221.529,67.188 227.036 C 67.195 227.275,67.646 227.675,68.192 227.924 C 68.802 228.201,69.100 228.596,68.965 228.947 C 68.844 229.262,68.938 229.638,69.173 229.783 C 69.408 229.928,69.600 229.878,69.600 229.671 C 69.600 229.458,71.596 229.291,74.188 229.286 C 80.415 229.273,81.464 228.503,81.560 223.874 C 81.639 220.084,79.803 220.400,101.765 220.400 C 123.678 220.400,121.793 220.049,122.109 224.185 C 122.418 228.234,122.706 228.400,129.425 228.400 C 132.816 228.400,135.159 228.219,135.849 227.905 C 136.715 227.510,136.970 227.511,137.102 227.907 C 137.287 228.461,138.000 228.180,138.000 227.553 C 138.000 227.333,137.820 227.264,137.600 227.400 C 137.380 227.536,137.200 227.457,137.200 227.224 C 137.200 226.991,137.384 226.800,137.610 226.800 C 137.882 226.800,138.009 222.421,137.989 213.789 C 137.970 205.697,137.815 200.867,137.579 201.013 C 137.158 201.273,137.075 199.108,137.452 197.700 C 137.722 196.691,139.200 196.438,139.200 197.400 C 139.200 198.658,139.905 197.919,140.519 196.016 L 141.160 194.032 139.338 192.157 C 137.639 190.409,137.372 190.280,135.386 190.236 C 134.214 190.210,133.184 190.101,133.097 189.994 C 132.520 189.285,131.082 185.976,130.201 183.328 C 129.629 181.608,128.899 179.722,128.580 179.138 C 128.261 178.554,127.998 177.744,127.996 177.338 C 127.975 173.400,121.821 168.025,117.296 167.992 C 116.693 167.988,114.760 167.724,113.000 167.406 C 110.904 167.027,106.937 166.823,101.500 166.814 C 96.243 166.805,93.200 166.653,93.200 166.400 C 93.200 165.787,91.797 165.924,90.510 166.663 C 89.308 167.353,86.941 167.143,87.407 166.388 C 87.539 166.175,87.485 166.000,87.288 166.000 C 87.090 166.000,86.723 166.450,86.473 167.000 M116.542 172.187 C 118.050 172.527,119.803 173.175,120.438 173.627 C 121.598 174.453,125.200 181.063,125.200 182.365 C 125.200 182.726,125.448 183.377,125.752 183.811 C 128.050 187.096,127.973 191.198,125.600 191.902 C 123.564 192.505,78.406 192.448,77.100 191.840 C 75.002 190.864,80.034 175.467,83.207 173.152 C 85.845 171.227,109.277 170.549,116.542 172.187 M76.705 200.762 C 77.876 201.373,82.114 203.085,83.694 203.585 C 86.422 204.449,87.588 207.097,86.146 209.155 C 85.344 210.300,81.379 210.248,80.083 209.076 C 79.490 208.539,78.537 208.400,75.442 208.400 C 70.209 208.400,70.000 208.262,70.000 204.815 C 70.000 200.965,73.286 198.979,76.705 200.762 M132.904 201.416 C 133.849 202.292,134.000 202.744,134.000 204.685 C 134.000 208.095,133.560 208.399,128.638 208.403 C 125.281 208.405,124.398 208.539,123.400 209.200 C 120.882 210.868,116.800 209.879,116.800 207.601 C 116.800 206.304,119.485 203.664,121.344 203.133 C 122.255 202.873,123.232 202.484,123.515 202.269 C 125.964 200.408,131.294 199.924,132.904 201.416 M72.900 229.876 C 73.285 229.976,73.915 229.976,74.300 229.876 C 74.685 229.775,74.370 229.693,73.600 229.693 C 72.830 229.693,72.515 229.775,72.900 229.876 " stroke="none" fill="#5fe1e4" fill-rule="evenodd"></path><path id="path1" d="M125.200 146.425 C 125.200 146.631,124.480 146.800,123.600 146.800 C 122.720 146.800,122.000 146.980,122.000 147.200 C 122.000 147.420,121.680 147.600,121.288 147.600 C 120.897 147.600,120.317 147.960,120.000 148.400 C 119.683 148.840,119.103 149.200,118.712 149.200 C 118.320 149.200,118.000 149.380,118.000 149.600 C 118.000 149.820,117.764 150.000,117.475 150.000 C 117.187 150.000,116.564 150.360,116.092 150.800 C 115.620 151.240,114.996 151.600,114.705 151.600 C 114.414 151.600,113.917 151.960,113.600 152.400 C 113.283 152.840,112.743 153.200,112.400 153.200 C 112.057 153.200,111.517 153.560,111.200 154.000 C 110.883 154.440,110.343 154.800,110.000 154.800 C 109.657 154.800,109.117 155.160,108.800 155.600 C 108.483 156.040,107.903 156.400,107.512 156.400 C 107.120 156.400,106.800 156.580,106.800 156.800 C 106.800 157.020,106.564 157.200,106.275 157.200 C 105.987 157.200,105.402 157.515,104.975 157.900 C 104.549 158.285,103.705 158.855,103.100 159.168 C 102.495 159.480,102.000 159.885,102.000 160.068 C 102.000 160.250,101.680 160.400,101.288 160.400 C 100.897 160.400,100.317 160.760,100.000 161.200 C 99.683 161.640,99.143 162.000,98.800 162.000 C 98.457 162.000,97.917 162.360,97.600 162.800 C 97.283 163.240,96.746 163.600,96.407 163.600 C 96.067 163.600,95.461 164.038,95.059 164.574 C 94.650 165.118,94.079 165.452,93.764 165.331 C 93.454 165.212,93.200 165.302,93.200 165.530 C 93.200 165.806,96.416 165.960,102.700 165.985 C 123.250 166.070,125.836 167.445,130.570 180.800 C 133.183 188.174,133.289 188.400,134.116 188.400 C 134.816 188.400,134.819 188.362,134.172 187.715 C 133.575 187.118,133.520 186.466,133.742 182.615 C 133.882 180.187,134.025 177.300,134.061 176.200 L 134.126 174.200 134.400 176.200 C 134.551 177.300,134.703 172.215,134.737 164.900 C 134.778 156.258,134.660 151.600,134.400 151.600 C 134.180 151.600,134.000 151.240,134.000 150.800 C 134.000 150.360,133.841 150.000,133.647 150.000 C 133.452 150.000,133.199 149.639,133.084 149.198 C 132.944 148.664,132.662 148.478,132.237 148.641 C 131.876 148.780,131.600 148.681,131.600 148.414 C 131.600 147.612,130.507 146.800,129.429 146.800 C 128.863 146.800,128.400 146.641,128.400 146.447 C 128.400 146.253,127.680 146.084,126.800 146.072 C 125.920 146.060,125.200 146.219,125.200 146.425 M89.479 172.797 C 84.328 173.200,83.646 173.564,82.197 176.686 C 80.158 181.080,77.497 188.204,77.448 189.400 L 77.400 190.600 80.800 190.961 C 85.212 191.429,120.213 191.428,123.595 190.959 C 125.649 190.675,126.220 190.444,126.334 189.850 C 126.662 188.144,121.507 175.817,119.913 174.494 C 117.912 172.833,101.041 171.893,89.479 172.797 M143.066 173.177 C 142.689 173.643,142.715 173.686,143.200 173.400 C 143.699 173.106,143.716 173.150,143.300 173.664 C 142.590 174.542,142.603 196.667,143.313 196.906 C 143.692 197.033,143.693 197.199,143.322 197.650 C 142.975 198.070,142.834 201.612,142.812 210.515 L 142.781 222.800 148.308 222.800 L 153.835 222.800 153.945 215.200 C 154.046 208.278,153.799 206.282,153.065 208.100 C 152.954 208.375,152.852 208.420,152.838 208.200 C 152.790 207.455,153.639 206.545,153.864 207.100 C 153.975 207.375,154.315 207.600,154.619 207.600 C 155.216 207.600,156.112 208.954,155.754 209.313 C 155.634 209.433,156.090 210.061,156.768 210.709 C 157.445 211.357,158.000 212.182,158.000 212.543 C 158.000 212.904,158.180 213.200,158.400 213.200 C 158.620 213.200,158.800 213.442,158.800 213.738 C 158.800 214.034,159.160 214.602,159.600 215.000 C 160.040 215.398,160.400 215.939,160.400 216.203 C 160.400 216.466,160.940 217.246,161.600 217.937 C 162.260 218.628,162.800 219.425,162.800 219.708 C 162.800 219.991,163.160 220.483,163.600 220.800 C 164.040 221.117,164.400 221.697,164.400 222.088 C 164.400 222.741,164.931 222.800,170.800 222.800 L 177.200 222.800 177.200 221.696 C 177.200 221.026,176.886 220.396,176.400 220.093 C 175.960 219.818,175.600 219.351,175.600 219.056 C 175.600 218.760,175.060 217.954,174.400 217.263 C 173.740 216.572,173.200 215.808,173.200 215.564 C 173.200 215.320,172.660 214.617,172.000 214.000 C 171.340 213.383,170.800 212.675,170.800 212.426 C 170.800 212.177,170.166 211.339,169.391 210.564 C 168.615 209.789,168.103 208.957,168.252 208.715 C 168.415 208.452,168.339 208.390,168.062 208.562 C 167.788 208.731,167.600 208.593,167.600 208.224 C 167.600 207.881,167.441 207.600,167.247 207.600 C 167.052 207.600,166.799 207.240,166.684 206.800 C 166.569 206.360,166.167 206.000,165.791 206.000 C 165.271 206.000,165.154 205.752,165.304 204.970 C 165.444 204.234,165.377 204.063,165.070 204.370 C 164.557 204.883,164.000 204.932,164.000 204.464 C 164.000 203.652,165.959 203.216,166.623 203.880 C 166.981 204.238,167.391 204.366,167.536 204.165 C 167.885 203.683,169.480 202.800,170.002 202.800 C 170.654 202.800,175.600 197.682,175.600 197.007 C 175.600 196.673,175.780 196.400,176.000 196.400 C 176.220 196.400,176.400 195.871,176.400 195.224 C 176.400 194.577,176.580 193.936,176.800 193.800 C 177.323 193.477,177.325 185.085,176.802 184.562 C 176.584 184.344,176.365 183.691,176.317 183.111 C 176.270 182.532,176.088 182.145,175.915 182.252 C 175.742 182.360,175.600 181.987,175.600 181.424 C 175.600 180.861,175.420 180.400,175.200 180.400 C 174.980 180.400,174.800 180.124,174.800 179.787 C 174.800 178.992,172.210 176.400,171.417 176.400 C 171.081 176.400,170.582 176.040,170.307 175.600 C 170.032 175.160,169.586 174.800,169.316 174.800 C 169.046 174.800,168.230 174.466,167.504 174.059 C 166.599 173.550,165.251 173.293,163.213 173.242 C 161.579 173.201,160.027 172.989,159.765 172.771 C 158.958 172.101,143.635 172.474,143.066 173.177 M264.100 173.024 C 263.748 173.406,263.600 175.286,263.600 179.383 L 263.600 185.200 261.582 185.200 L 259.564 185.200 259.625 189.932 L 259.686 194.664 261.543 194.632 L 263.400 194.600 263.505 208.700 L 263.610 222.800 268.790 222.800 L 273.969 222.800 273.989 208.929 C 274.000 201.299,274.069 194.998,274.142 194.925 C 274.215 194.852,275.473 194.774,276.937 194.752 L 279.600 194.712 279.600 189.956 L 279.600 185.200 276.800 185.200 L 274.000 185.200 274.000 182.200 C 274.000 180.248,273.843 179.200,273.551 179.200 C 273.243 179.200,273.229 179.043,273.505 178.700 C 273.727 178.425,273.932 176.912,273.960 175.337 L 274.012 172.474 269.306 172.478 C 265.860 172.480,264.466 172.626,264.100 173.024 M326.280 172.654 C 325.822 173.111,325.941 210.000,326.400 210.000 C 326.620 210.000,326.800 210.900,326.800 212.000 C 326.800 213.100,326.617 214.000,326.394 214.000 C 326.141 214.000,326.010 215.654,326.046 218.400 L 326.103 222.800 331.252 222.800 C 336.133 222.800,336.400 222.759,336.400 222.000 C 336.400 221.553,336.133 221.200,335.795 221.200 C 334.926 221.200,335.080 174.168,335.951 173.630 C 336.254 173.443,336.396 173.118,336.267 172.908 C 335.996 172.469,326.701 172.232,326.280 172.654 M72.676 179.100 C 72.498 179.375,72.003 179.600,71.576 179.600 C 71.149 179.600,70.800 179.780,70.800 180.000 C 70.800 180.220,70.480 180.400,70.088 180.400 C 69.697 180.400,69.117 180.760,68.800 181.200 C 68.483 181.640,67.943 182.000,67.600 182.000 C 67.257 182.000,66.717 182.360,66.400 182.800 C 66.083 183.240,65.586 183.600,65.295 183.600 C 65.004 183.600,64.380 183.960,63.908 184.400 C 63.436 184.840,62.813 185.200,62.525 185.200 C 62.236 185.200,62.000 185.380,62.000 185.600 C 62.000 185.820,61.680 186.000,61.288 186.000 C 60.897 186.000,60.317 186.360,60.000 186.800 C 59.683 187.240,59.143 187.600,58.800 187.600 C 58.457 187.600,57.917 187.960,57.600 188.400 C 57.283 188.840,56.703 189.200,56.312 189.200 C 55.920 189.200,55.600 189.380,55.600 189.600 C 55.600 189.820,55.350 190.000,55.044 190.000 C 54.294 190.000,50.000 194.264,50.000 195.008 C 50.000 195.334,49.820 195.600,49.600 195.600 C 49.380 195.600,49.200 195.960,49.200 196.400 C 49.200 196.840,49.017 197.200,48.793 197.200 C 48.550 197.200,48.409 198.330,48.444 200.000 C 48.488 202.137,48.637 202.800,49.074 202.800 C 49.389 202.800,49.533 202.984,49.394 203.209 C 48.984 203.873,50.129 206.000,50.898 206.000 C 51.333 206.000,51.600 206.304,51.600 206.800 C 51.600 207.252,51.867 207.600,52.213 207.600 C 52.549 207.600,52.944 207.915,53.090 208.300 C 53.434 209.208,54.225 210.000,54.788 210.000 C 55.033 210.000,55.620 210.360,56.092 210.800 C 56.564 211.240,57.187 211.600,57.475 211.600 C 57.764 211.600,58.000 211.780,58.000 212.000 C 58.000 212.220,58.294 212.400,58.653 212.400 C 59.012 212.400,59.618 212.760,60.000 213.200 C 60.382 213.640,61.155 214.038,61.719 214.085 C 62.282 214.132,62.735 214.267,62.724 214.385 C 62.653 215.191,62.882 215.600,63.405 215.600 C 63.738 215.600,64.360 215.818,64.787 216.085 C 66.021 216.856,66.099 216.449,66.267 208.313 C 66.355 204.071,66.465 200.060,66.513 199.400 C 66.586 198.389,66.443 198.182,65.600 198.088 C 62.222 197.710,61.600 196.538,62.991 193.173 C 63.991 190.756,66.202 189.200,68.639 189.200 C 70.073 189.200,70.378 188.727,72.201 183.672 C 73.159 181.016,73.489 177.845,72.676 179.100 M156.304 182.800 C 157.097 182.800,157.546 182.636,157.400 182.400 C 157.264 182.180,157.333 182.000,157.553 182.000 C 157.773 182.000,158.064 182.180,158.200 182.400 C 158.336 182.620,158.662 182.797,158.924 182.794 C 159.210 182.790,159.161 182.633,158.800 182.400 C 158.267 182.055,158.267 182.013,158.800 182.019 C 159.585 182.027,160.862 183.004,160.527 183.340 C 160.384 183.483,160.477 183.600,160.733 183.600 C 160.990 183.600,161.200 183.420,161.200 183.200 C 161.200 182.980,161.470 182.800,161.800 182.800 C 162.130 182.800,162.400 182.980,162.400 183.200 C 162.400 183.420,162.586 183.600,162.813 183.600 C 163.458 183.600,166.000 186.301,166.000 186.987 C 166.000 187.324,166.180 187.600,166.400 187.600 C 166.620 187.600,166.800 188.399,166.800 189.376 C 166.800 190.353,166.620 191.264,166.400 191.400 C 166.180 191.536,166.000 191.964,166.000 192.351 C 166.000 193.156,164.275 194.800,163.430 194.800 C 163.120 194.800,162.797 195.010,162.711 195.268 C 162.624 195.527,161.896 195.711,161.077 195.680 C 160.265 195.649,159.600 195.799,159.600 196.012 C 159.600 196.227,158.290 196.400,156.655 196.400 C 153.730 196.400,153.712 196.393,153.902 195.400 C 154.007 194.850,153.909 194.400,153.684 194.400 C 153.032 194.400,153.031 182.527,153.684 182.289 C 153.968 182.185,154.371 182.258,154.580 182.450 C 154.789 182.643,155.565 182.800,156.304 182.800 M194.000 184.800 C 194.000 185.020,193.471 185.200,192.824 185.200 C 192.177 185.200,191.536 185.380,191.400 185.600 C 191.264 185.820,190.831 186.000,190.438 186.000 C 190.045 186.000,189.398 186.360,189.000 186.800 C 188.602 187.240,188.031 187.600,187.731 187.600 C 186.984 187.600,182.000 192.638,182.000 193.393 C 182.000 193.727,181.820 194.000,181.600 194.000 C 181.380 194.000,181.200 194.360,181.200 194.800 C 181.200 195.240,181.020 195.600,180.800 195.600 C 180.580 195.600,180.400 196.140,180.400 196.800 C 180.400 197.460,180.220 198.000,180.000 198.000 C 179.780 198.000,179.600 198.900,179.600 200.000 C 179.600 201.100,179.420 202.000,179.200 202.000 C 178.656 202.000,178.692 205.052,179.249 206.092 C 179.497 206.554,179.683 207.720,179.664 208.684 C 179.641 209.815,179.820 210.510,180.170 210.644 C 180.479 210.762,180.624 211.185,180.509 211.626 C 180.398 212.052,180.508 212.400,180.753 212.400 C 180.999 212.400,181.200 212.760,181.200 213.200 C 181.200 213.640,181.380 214.000,181.600 214.000 C 181.820 214.000,182.000 214.262,182.000 214.582 C 182.000 215.344,183.868 217.200,184.636 217.200 C 184.965 217.200,185.182 217.433,185.118 217.718 C 184.985 218.303,186.929 220.400,187.605 220.400 C 187.848 220.400,187.919 220.608,187.762 220.862 C 187.593 221.136,187.651 221.215,187.906 221.058 C 188.142 220.912,188.607 221.064,188.939 221.396 C 189.271 221.728,189.826 222.000,190.171 222.000 C 190.517 222.000,190.800 222.201,190.800 222.447 C 190.800 222.692,191.148 222.802,191.574 222.691 C 192.000 222.580,192.675 222.717,193.074 222.995 C 194.140 223.739,195.997 223.647,196.013 222.850 C 196.024 222.296,196.109 222.311,196.595 222.952 C 197.230 223.791,205.658 224.010,205.933 223.195 C 206.007 222.978,206.401 222.800,206.810 222.800 C 207.218 222.800,207.664 222.620,207.800 222.400 C 207.936 222.180,208.363 222.000,208.748 222.000 C 209.134 222.000,209.836 221.640,210.308 221.200 C 210.780 220.760,211.401 220.400,211.688 220.400 C 211.975 220.400,212.388 219.995,212.605 219.500 C 212.822 219.005,213.405 218.422,213.900 218.205 C 214.395 217.988,214.800 217.572,214.800 217.282 C 214.800 216.984,215.002 216.877,215.262 217.038 C 215.527 217.202,215.616 217.149,215.470 216.914 C 215.331 216.689,215.663 215.986,216.208 215.352 C 216.753 214.718,217.199 213.795,217.200 213.300 C 217.200 212.805,217.380 212.400,217.600 212.400 C 217.820 212.400,218.000 212.040,218.000 211.600 C 218.000 211.160,217.826 210.800,217.613 210.800 C 217.399 210.800,217.329 211.072,217.457 211.405 C 217.623 211.837,217.506 211.939,217.045 211.762 C 216.690 211.626,216.400 211.326,216.400 211.095 C 216.400 210.865,216.071 210.974,215.669 211.338 C 214.762 212.159,214.400 212.176,214.400 211.400 C 214.400 210.672,213.545 210.615,212.863 211.297 C 212.514 211.646,212.282 211.664,212.083 211.359 C 211.521 210.498,207.066 210.674,206.412 211.583 C 206.088 212.032,205.569 212.400,205.259 212.400 C 204.948 212.400,204.365 212.779,203.963 213.242 C 203.170 214.157,195.961 214.461,195.667 213.593 C 195.593 213.377,195.108 213.200,194.587 213.200 C 193.479 213.200,191.600 211.598,191.600 210.654 C 191.600 210.294,191.420 210.000,191.200 210.000 C 190.980 210.000,190.800 209.640,190.800 209.200 C 190.800 208.415,191.067 208.400,204.755 208.400 L 218.710 208.400 218.768 204.556 C 218.802 202.270,218.647 200.498,218.387 200.184 C 218.145 199.893,217.932 199.103,217.913 198.428 C 217.894 197.752,217.726 197.200,217.539 197.200 C 217.353 197.200,217.200 196.660,217.200 196.000 C 217.200 195.340,217.020 194.800,216.800 194.800 C 216.580 194.800,216.400 194.530,216.400 194.201 C 216.400 193.871,215.680 192.837,214.800 191.903 C 213.920 190.969,213.200 190.056,213.200 189.874 C 213.200 189.352,212.112 188.400,211.517 188.400 C 211.220 188.400,210.717 188.040,210.400 187.600 C 210.083 187.160,209.503 186.800,209.112 186.800 C 208.720 186.800,208.400 186.620,208.400 186.400 C 208.400 186.180,208.040 186.000,207.600 186.000 C 207.160 186.000,206.800 185.820,206.800 185.600 C 206.800 185.380,206.260 185.200,205.600 185.200 C 204.940 185.200,204.400 185.020,204.400 184.800 C 204.400 184.554,202.400 184.400,199.200 184.400 C 196.000 184.400,194.000 184.554,194.000 184.800 M237.200 184.800 C 237.200 185.020,236.784 185.200,236.275 185.200 C 235.767 185.200,234.964 185.560,234.492 186.000 C 233.381 187.035,232.400 187.029,232.400 185.987 C 232.400 185.210,232.195 185.180,227.700 185.287 L 223.000 185.400 222.918 204.100 L 222.837 222.800 228.018 222.800 L 233.200 222.800 233.200 220.776 C 233.200 219.663,233.064 218.837,232.899 218.939 C 232.733 219.041,232.641 217.747,232.694 216.063 C 233.001 206.304,232.984 203.992,232.606 203.834 C 232.383 203.740,232.425 203.649,232.700 203.632 C 232.984 203.614,233.200 203.072,233.200 202.376 C 233.200 201.663,233.033 201.256,232.800 201.400 C 232.580 201.536,232.400 201.457,232.400 201.224 C 232.400 200.991,232.580 200.800,232.800 200.800 C 233.020 200.800,233.200 200.429,233.200 199.976 C 233.200 199.523,233.342 199.240,233.515 199.348 C 233.688 199.455,233.869 199.069,233.917 198.490 C 234.003 197.454,235.750 195.531,237.564 194.477 C 238.706 193.812,242.240 193.769,243.013 194.410 C 243.336 194.679,243.600 194.752,243.600 194.574 C 243.600 194.395,243.960 194.636,244.400 195.108 C 244.840 195.580,245.200 196.229,245.200 196.550 C 245.200 196.871,245.404 197.201,245.652 197.284 C 245.911 197.370,246.089 198.241,246.067 199.317 C 246.046 200.353,246.203 201.200,246.415 201.200 C 246.652 201.200,246.800 205.339,246.800 212.000 L 246.800 222.800 251.977 222.800 L 257.153 222.800 257.128 211.300 C 257.114 204.760,256.945 199.699,256.735 199.566 C 256.533 199.438,256.329 198.508,256.284 197.500 C 256.238 196.492,256.110 195.698,256.000 195.734 C 255.749 195.817,255.600 195.384,255.600 194.576 C 255.600 194.233,255.793 194.072,256.030 194.218 C 256.487 194.501,255.606 192.754,255.102 192.378 C 254.938 192.255,254.765 191.683,254.717 191.106 C 254.669 190.530,254.488 190.145,254.315 190.252 C 254.142 190.360,254.000 190.279,254.000 190.074 C 254.000 189.496,251.405 186.800,250.848 186.800 C 250.576 186.800,250.463 186.622,250.597 186.405 C 250.737 186.178,250.577 186.111,250.224 186.246 C 249.860 186.386,249.506 186.219,249.361 185.842 C 249.215 185.462,248.652 185.200,247.981 185.200 C 247.357 185.200,246.736 185.020,246.600 184.800 C 246.458 184.571,244.396 184.400,241.776 184.400 C 238.992 184.400,237.200 184.557,237.200 184.800 M294.800 184.838 C 294.800 185.037,294.260 185.200,293.600 185.200 C 292.940 185.200,292.400 185.380,292.400 185.600 C 292.400 185.820,292.117 186.000,291.771 186.000 C 291.426 186.000,290.871 186.272,290.539 186.604 C 290.207 186.936,289.742 187.088,289.506 186.942 C 289.251 186.785,289.193 186.864,289.362 187.138 C 289.522 187.398,289.417 187.600,289.120 187.600 C 288.830 187.600,288.368 187.960,288.093 188.400 C 287.818 188.840,287.235 189.200,286.797 189.200 C 286.347 189.200,286.000 189.468,286.000 189.813 C 286.000 190.151,285.460 190.955,284.800 191.600 C 284.140 192.245,283.600 192.923,283.600 193.107 C 283.600 193.697,282.610 195.594,282.300 195.597 C 282.135 195.599,282.000 196.140,282.000 196.800 C 282.000 197.460,281.820 198.000,281.600 198.000 C 281.352 198.000,281.200 200.192,281.200 203.776 C 281.200 207.196,281.363 209.654,281.600 209.800 C 281.820 209.936,282.000 210.470,282.000 210.986 C 282.000 211.936,283.548 215.288,284.100 215.533 C 284.265 215.607,284.400 215.937,284.400 216.268 C 284.400 217.006,288.697 221.200,289.454 221.200 C 289.754 221.200,290.000 221.380,290.000 221.600 C 290.000 221.820,290.461 222.000,291.024 222.000 C 291.587 222.000,291.960 222.142,291.852 222.315 C 291.745 222.488,292.140 222.670,292.729 222.719 C 293.318 222.767,293.860 222.985,293.933 223.203 C 294.007 223.422,294.242 223.600,294.457 223.600 C 294.672 223.600,294.735 223.419,294.598 223.197 C 294.458 222.970,294.811 223.005,295.404 223.275 C 296.207 223.641,296.637 223.645,297.201 223.292 C 297.743 222.953,297.983 222.949,298.092 223.277 C 298.281 223.842,304.942 223.768,305.133 223.198 C 305.207 222.979,305.501 222.800,305.788 222.800 C 306.074 222.800,306.811 222.539,307.426 222.220 C 308.040 221.902,308.718 221.750,308.933 221.882 C 309.150 222.016,309.196 221.918,309.038 221.662 C 308.869 221.388,309.007 221.200,309.376 221.200 C 309.747 221.200,310.013 220.835,310.032 220.300 C 310.049 219.805,310.158 219.636,310.273 219.924 C 310.436 220.331,310.656 220.293,311.251 219.754 C 311.772 219.282,312.150 219.190,312.426 219.466 C 312.703 219.743,312.636 220.038,312.217 220.386 C 310.141 222.109,311.339 222.800,316.400 222.800 L 321.200 222.800 321.200 218.424 C 321.200 216.017,321.030 213.942,320.823 213.814 C 320.458 213.589,320.557 191.828,320.944 187.328 L 321.122 185.255 316.446 185.255 C 311.837 185.255,311.769 185.269,311.693 186.188 C 311.650 186.701,311.882 187.223,312.208 187.348 C 312.980 187.644,312.974 189.447,312.200 189.745 C 311.831 189.886,311.600 189.744,311.600 189.374 C 311.600 188.588,309.003 186.000,308.213 186.000 C 307.876 186.000,307.600 185.820,307.600 185.600 C 307.600 185.380,307.060 185.200,306.400 185.200 C 305.740 185.200,305.200 185.014,305.200 184.787 C 305.200 184.522,303.342 184.392,300.000 184.425 C 297.140 184.453,294.800 184.639,294.800 184.838 M232.594 188.409 C 232.098 189.212,231.374 188.773,231.424 187.700 C 231.510 185.855,231.609 185.758,232.234 186.909 C 232.565 187.520,232.727 188.195,232.594 188.409 M202.733 194.460 C 202.807 194.647,203.312 194.800,203.857 194.800 C 204.402 194.800,204.755 194.950,204.641 195.133 C 204.528 195.317,204.687 195.467,204.995 195.467 C 205.303 195.467,205.521 195.294,205.478 195.083 C 205.435 194.873,205.652 194.608,205.961 194.496 C 206.365 194.350,206.460 194.527,206.302 195.132 C 206.178 195.604,206.325 196.171,206.637 196.431 C 206.942 196.684,207.100 197.038,206.989 197.218 C 206.878 197.398,206.970 197.658,207.193 197.796 C 207.417 197.934,207.606 197.722,207.613 197.324 C 207.625 196.628,207.646 196.628,208.170 197.319 C 208.470 197.714,208.624 198.387,208.512 198.814 C 208.386 199.298,208.552 199.683,208.955 199.838 C 209.767 200.150,209.798 200.800,209.000 200.800 C 208.670 200.800,208.400 200.554,208.400 200.253 C 208.400 199.552,192.245 199.299,191.417 199.986 C 191.045 200.294,190.755 200.227,190.353 199.740 C 189.923 199.219,189.911 199.033,190.300 198.902 C 190.575 198.809,190.800 198.408,190.800 198.009 C 190.800 197.611,191.090 197.174,191.445 197.038 C 191.972 196.836,191.998 196.680,191.588 196.186 C 191.312 195.853,191.216 195.450,191.376 195.291 C 191.535 195.132,191.892 195.311,192.169 195.690 C 192.642 196.336,192.724 196.330,193.519 195.589 C 193.985 195.155,194.644 194.800,194.983 194.800 C 195.322 194.800,195.600 194.630,195.600 194.422 C 195.600 193.674,202.439 193.711,202.733 194.460 M304.400 194.400 C 304.400 194.620,304.760 194.800,305.200 194.800 C 305.640 194.800,306.000 194.980,306.000 195.200 C 306.000 195.420,306.294 195.600,306.653 195.600 C 307.384 195.600,309.199 197.525,309.200 198.300 C 309.200 198.575,309.380 198.800,309.600 198.800 C 309.820 198.800,310.000 199.145,310.000 199.567 C 310.000 199.988,310.195 200.398,310.433 200.478 C 310.995 200.665,310.967 208.144,310.404 208.332 C 310.182 208.406,310.000 208.753,310.000 209.102 C 310.000 209.890,306.602 213.200,305.793 213.200 C 305.467 213.200,305.200 213.380,305.200 213.600 C 305.200 213.820,304.289 214.000,303.176 214.000 C 301.929 214.000,301.248 214.153,301.400 214.400 C 301.536 214.620,301.457 214.800,301.224 214.800 C 300.991 214.800,300.786 214.575,300.768 214.300 C 300.743 213.900,300.696 213.900,300.535 214.300 C 300.424 214.575,300.158 214.800,299.943 214.800 C 299.728 214.800,299.657 214.632,299.784 214.427 C 299.911 214.221,299.436 214.070,298.728 214.090 C 298.021 214.110,297.373 213.918,297.288 213.663 C 297.203 213.408,296.854 213.200,296.513 213.200 C 296.172 213.200,295.027 212.320,293.968 211.245 C 292.910 210.169,291.944 209.389,291.822 209.511 C 291.700 209.633,291.584 208.938,291.565 207.967 C 291.448 202.125,291.524 200.625,291.946 200.485 C 292.196 200.401,292.400 199.988,292.400 199.567 C 292.400 199.145,292.580 198.800,292.800 198.800 C 293.020 198.800,293.200 198.440,293.200 198.000 C 293.200 197.560,293.425 197.197,293.700 197.194 C 294.032 197.190,293.999 197.060,293.600 196.807 C 293.089 196.483,293.140 196.291,293.947 195.513 C 294.603 194.881,294.951 194.754,295.080 195.100 C 295.358 195.844,296.147 195.706,296.800 194.800 C 297.437 193.917,304.400 193.550,304.400 194.400 M289.757 196.633 C 290.133 197.611,290.051 197.708,289.400 197.057 C 288.720 196.377,288.633 196.000,289.157 196.000 C 289.354 196.000,289.624 196.285,289.757 196.633 M320.965 203.200 C 320.965 207.050,321.025 208.625,321.098 206.700 C 321.171 204.775,321.171 201.625,321.098 199.700 C 321.025 197.775,320.965 199.350,320.965 203.200 M71.786 202.161 C 71.257 202.547,71.020 203.202,71.023 204.261 C 71.031 207.211,71.171 207.308,74.974 206.991 C 78.266 206.717,78.398 206.740,80.576 207.986 C 83.879 209.876,86.757 208.900,85.569 206.292 C 84.554 204.065,73.651 200.797,71.786 202.161 M126.800 202.157 C 119.256 204.971,116.631 207.073,118.700 208.643 C 119.779 209.462,121.083 209.303,123.129 208.100 C 124.815 207.109,125.375 207.000,128.800 207.000 L 132.600 207.000 132.719 204.948 C 132.907 201.715,130.733 200.690,126.800 202.157 M326.682 208.900 C 326.587 209.395,326.509 208.990,326.509 208.000 C 326.509 207.010,326.587 206.605,326.682 207.100 C 326.778 207.595,326.778 208.405,326.682 208.900 M326.682 216.900 C 326.587 217.395,326.509 216.990,326.509 216.000 C 326.509 215.010,326.587 214.605,326.682 215.100 C 326.778 215.595,326.778 216.405,326.682 216.900 M83.300 221.863 C 82.585 222.154,82.628 227.085,83.352 227.810 C 83.656 228.113,84.016 228.250,84.152 228.114 C 84.289 227.978,84.400 228.167,84.400 228.533 C 84.400 228.906,84.714 229.200,85.112 229.200 C 85.503 229.200,86.083 229.560,86.400 230.000 C 86.717 230.440,87.231 230.800,87.541 230.800 C 87.852 230.800,88.424 231.166,88.812 231.614 C 89.200 232.061,89.675 232.376,89.867 232.314 C 90.058 232.251,90.651 232.605,91.183 233.100 C 91.715 233.595,92.387 234.000,92.675 234.000 C 92.964 234.000,93.200 234.180,93.200 234.400 C 93.200 234.620,93.558 234.800,93.997 234.800 C 94.435 234.800,95.018 235.160,95.293 235.600 C 95.568 236.040,96.069 236.400,96.408 236.400 C 96.746 236.400,97.283 236.760,97.600 237.200 C 97.917 237.640,98.457 238.000,98.800 238.000 C 99.143 238.000,99.683 238.360,100.000 238.800 C 100.317 239.240,100.814 239.600,101.105 239.600 C 101.396 239.600,102.020 239.960,102.492 240.400 C 102.964 240.840,103.587 241.200,103.875 241.200 C 104.164 241.200,104.400 241.380,104.400 241.600 C 104.400 241.820,104.720 242.000,105.112 242.000 C 105.503 242.000,106.083 242.360,106.400 242.800 C 106.717 243.240,107.257 243.600,107.600 243.600 C 107.943 243.600,108.483 243.960,108.800 244.400 C 109.117 244.840,109.781 245.200,110.274 245.200 C 110.768 245.200,111.365 245.560,111.600 246.000 C 111.835 246.440,112.292 246.800,112.614 246.800 C 112.936 246.800,113.200 246.980,113.200 247.200 C 113.200 247.420,113.520 247.600,113.912 247.600 C 114.303 247.600,114.883 247.960,115.200 248.400 C 115.517 248.840,116.057 249.200,116.400 249.200 C 116.743 249.200,117.283 249.560,117.599 249.999 C 117.959 250.498,118.443 250.713,118.888 250.572 C 119.324 250.434,119.601 250.550,119.603 250.873 C 119.607 251.508,121.404 252.400,122.680 252.400 C 123.186 252.400,123.600 252.580,123.600 252.800 C 123.600 253.035,124.979 253.200,126.936 253.200 L 130.273 253.200 132.136 251.440 C 133.235 250.402,134.000 249.325,134.000 248.816 C 134.000 248.341,134.141 248.040,134.314 248.147 C 134.796 248.445,134.708 246.641,134.225 246.306 C 133.937 246.107,133.953 246.010,134.274 246.006 C 134.756 246.000,134.736 242.335,134.213 234.427 C 134.059 232.086,134.132 230.966,134.453 230.767 C 136.169 229.707,134.363 229.200,128.866 229.200 C 121.697 229.200,121.291 228.963,121.117 224.685 L 121.000 221.800 102.400 221.730 C 92.170 221.691,83.575 221.751,83.300 221.863 " stroke="none" fill="#fbfbf5" fill-rule="evenodd"></path><path id="path2" d="M93.798 165.603 C 93.380 166.279,94.266 166.362,104.000 166.557 C 116.187 166.801,119.223 167.283,123.541 169.664 C 126.223 171.142,126.704 172.020,130.362 182.100 C 130.781 183.255,131.261 184.560,131.428 185.000 C 131.595 185.440,132.028 186.610,132.392 187.600 C 133.044 189.376,134.305 190.086,134.700 188.900 C 134.794 188.619,134.540 188.400,134.121 188.400 C 133.288 188.400,133.186 188.183,130.570 180.800 C 125.866 167.530,123.041 166.010,103.076 166.003 C 97.097 166.001,94.038 165.862,94.200 165.600 C 94.336 165.380,94.357 165.200,94.247 165.200 C 94.137 165.200,93.935 165.381,93.798 165.603 M87.200 172.449 C 83.099 173.113,82.784 173.442,80.179 179.800 C 79.819 180.680,79.287 181.940,78.997 182.600 C 77.742 185.460,76.800 188.527,76.800 189.755 L 76.800 191.080 81.900 191.543 C 95.961 192.819,127.200 191.946,127.200 190.276 C 127.200 187.127,121.461 174.430,119.669 173.613 C 116.388 172.118,94.171 171.322,87.200 172.449 M117.200 173.414 C 120.114 174.298,120.173 174.359,122.379 178.779 C 126.276 186.584,127.071 190.270,125.000 190.918 C 123.435 191.407,85.253 191.451,80.800 190.969 L 77.400 190.600 77.448 189.400 C 77.553 186.809,82.797 174.682,84.215 173.753 C 86.421 172.308,112.665 172.038,117.200 173.414 M73.200 179.452 C 73.200 180.829,71.851 185.108,70.555 187.838 C 70.058 188.886,69.668 189.137,68.230 189.334 C 65.279 189.738,64.376 190.380,63.172 192.925 C 61.508 196.443,62.097 197.696,65.600 198.088 C 66.439 198.182,66.589 198.394,66.529 199.400 C 66.259 203.976,66.177 216.400,66.417 216.400 C 66.579 216.400,66.793 212.485,66.891 207.700 C 66.990 202.915,67.209 198.685,67.378 198.300 C 67.645 197.692,67.451 197.600,65.905 197.600 C 60.703 197.600,62.660 190.603,68.005 190.090 C 70.199 189.879,70.792 189.361,71.544 187.000 C 71.824 186.120,72.202 185.040,72.384 184.600 C 73.847 181.060,74.307 179.530,74.122 178.823 C 73.773 177.490,73.200 177.881,73.200 179.452 M71.454 201.629 C 70.528 202.357,70.400 202.745,70.400 204.815 C 70.400 207.854,70.811 208.096,75.373 207.745 C 78.610 207.497,78.866 207.537,80.383 208.542 C 83.252 210.440,86.400 209.699,86.400 207.127 C 86.400 205.887,84.729 204.000,83.631 204.000 C 83.187 204.000,81.807 203.535,80.565 202.967 C 75.593 200.693,73.108 200.328,71.454 201.629 M126.400 201.753 C 120.304 203.948,118.619 204.931,117.537 206.927 C 116.201 209.391,120.577 210.553,123.617 208.542 C 125.138 207.535,125.384 207.496,128.669 207.749 C 132.958 208.078,133.600 207.684,133.600 204.720 C 133.600 200.916,131.326 199.979,126.400 201.753 M80.368 203.469 C 85.415 205.449,86.475 206.364,85.605 207.990 C 84.886 209.334,83.005 209.397,80.892 208.148 C 79.132 207.107,78.742 207.038,75.300 207.147 C 71.148 207.278,71.031 207.200,71.023 204.261 C 71.013 201.013,73.556 200.798,80.368 203.469 M132.191 202.248 C 132.658 202.715,132.805 203.468,132.719 204.948 L 132.600 207.000 128.742 207.038 C 125.326 207.071,124.676 207.197,123.070 208.138 C 121.079 209.305,119.771 209.456,118.700 208.643 C 116.631 207.073,119.256 204.971,126.800 202.157 C 128.781 201.419,131.406 201.463,132.191 202.248 M82.524 221.300 C 82.116 221.930,82.094 228.389,82.500 228.138 C 82.665 228.036,82.800 226.617,82.800 224.984 C 82.800 221.227,80.809 221.555,102.800 221.689 L 121.000 221.800 121.117 224.653 C 121.288 228.853,121.456 228.952,128.803 229.200 C 132.061 229.310,134.642 229.265,134.539 229.100 C 134.437 228.935,131.925 228.800,128.958 228.800 C 122.117 228.800,121.600 228.467,121.600 224.065 C 121.600 221.529,121.524 221.273,120.700 221.052 C 118.788 220.540,82.865 220.773,82.524 221.300 " stroke="none" fill="#b1f0f0" fill-rule="evenodd"></path><path id="path3" d="M87.426 166.358 C 86.875 167.250,89.504 167.459,90.624 166.613 C 91.342 166.069,91.260 166.024,89.524 166.013 C 88.492 166.006,87.548 166.161,87.426 166.358 M93.200 166.500 C 93.200 166.665,96.935 166.806,101.500 166.814 C 106.937 166.823,110.904 167.027,113.000 167.406 C 114.760 167.724,116.693 167.988,117.296 167.992 C 121.821 168.025,127.975 173.400,127.996 177.338 C 127.998 177.744,128.261 178.554,128.580 179.138 C 128.899 179.722,129.629 181.608,130.201 183.328 C 131.082 185.976,132.520 189.285,133.097 189.994 C 133.184 190.101,134.230 190.210,135.421 190.237 C 137.424 190.281,137.700 190.409,139.102 191.942 C 140.772 193.769,141.200 193.960,141.200 192.878 C 141.200 190.843,138.581 189.108,135.736 189.258 L 133.057 189.400 132.394 187.600 C 132.029 186.610,131.595 185.440,131.428 185.000 C 131.261 184.560,130.781 183.255,130.362 182.100 C 127.518 174.263,127.005 173.052,125.872 171.516 C 124.616 169.812,118.746 167.218,116.120 167.206 C 115.416 167.203,113.976 167.023,112.920 166.806 C 110.638 166.337,93.199 166.067,93.200 166.500 M84.400 167.428 C 84.400 167.845,84.692 168.013,85.269 167.928 C 86.549 167.739,86.686 166.800,85.433 166.800 C 84.761 166.800,84.400 167.019,84.400 167.428 M79.200 169.200 C 78.286 169.915,78.269 169.982,79.000 169.978 C 79.803 169.975,81.200 169.135,81.200 168.656 C 81.200 168.154,80.184 168.430,79.200 169.200 M75.874 172.801 C 74.707 175.144,74.517 176.167,75.300 175.890 C 75.575 175.793,75.775 175.418,75.744 175.057 C 75.714 174.696,75.835 174.400,76.013 174.400 C 76.430 174.400,77.315 171.744,77.106 171.119 C 77.020 170.859,76.465 171.616,75.874 172.801 M88.000 171.825 C 82.382 172.715,81.902 173.270,78.171 183.190 C 76.219 188.380,75.862 191.264,77.100 191.840 C 78.406 192.448,123.564 192.505,125.600 191.902 C 127.973 191.198,128.050 187.096,125.752 183.811 C 125.448 183.377,125.200 182.726,125.200 182.365 C 125.200 181.063,121.598 174.453,120.438 173.627 C 117.502 171.537,97.006 170.398,88.000 171.825 M115.403 172.565 C 120.648 173.488,122.222 175.335,125.494 184.400 C 127.957 191.227,128.017 190.990,123.673 191.548 C 118.974 192.150,88.553 192.147,81.900 191.543 L 76.800 191.080 76.800 189.755 C 76.800 188.527,77.742 185.460,78.997 182.600 C 79.287 181.940,79.819 180.680,80.179 179.800 C 82.784 173.442,83.099 173.113,87.200 172.449 C 90.979 171.838,111.756 171.923,115.403 172.565 M74.048 178.300 C 74.126 179.974,73.777 181.300,72.389 184.600 C 72.204 185.040,71.824 186.120,71.544 187.000 C 70.792 189.361,70.199 189.879,68.005 190.090 C 62.660 190.603,60.703 197.600,65.905 197.600 C 67.451 197.600,67.645 197.692,67.378 198.300 C 67.209 198.685,66.990 202.915,66.891 207.700 C 66.793 212.485,66.569 216.400,66.394 216.400 C 66.219 216.400,66.059 218.922,66.038 222.005 C 65.997 228.021,66.298 229.200,67.873 229.200 C 69.185 229.200,69.388 228.468,68.223 227.937 C 67.660 227.681,67.195 227.275,67.188 227.036 C 67.039 221.529,67.481 201.516,67.804 199.115 C 68.023 197.493,67.348 196.806,65.526 196.794 C 61.527 196.767,63.899 191.160,68.122 190.660 C 70.581 190.369,71.368 189.685,72.008 187.280 C 72.283 186.246,72.734 185.031,73.011 184.580 C 73.761 183.356,75.293 177.619,75.043 176.967 C 74.551 175.687,73.963 176.475,74.048 178.300 M140.955 194.700 C 140.834 195.085,140.570 195.813,140.367 196.319 C 139.683 198.030,140.242 198.615,141.429 197.429 C 142.083 196.774,142.196 196.232,141.600 196.600 C 141.380 196.736,141.200 196.672,141.200 196.457 C 141.200 196.242,141.425 195.991,141.700 195.898 C 142.081 195.770,142.058 195.554,141.600 194.988 C 141.254 194.561,141.212 194.374,141.500 194.547 C 141.775 194.712,142.000 194.657,142.000 194.424 C 142.000 193.730,141.193 193.943,140.955 194.700 M137.600 197.400 C 137.600 197.733,137.956 198.000,138.400 198.000 C 138.844 198.000,139.200 197.733,139.200 197.400 C 139.200 197.067,138.844 196.800,138.400 196.800 C 137.956 196.800,137.600 197.067,137.600 197.400 M137.200 200.153 C 137.200 201.455,137.807 201.830,137.909 200.591 C 137.952 200.068,137.811 199.530,137.594 199.396 C 137.375 199.261,137.200 199.598,137.200 200.153 M71.054 201.229 C 70.097 201.981,70.000 202.313,70.000 204.815 C 70.000 208.262,70.209 208.400,75.442 208.400 C 78.537 208.400,79.490 208.539,80.083 209.076 C 81.379 210.248,85.344 210.300,86.146 209.155 C 87.588 207.097,86.422 204.449,83.694 203.585 C 82.114 203.085,77.876 201.373,76.705 200.762 C 75.390 200.076,72.183 200.341,71.054 201.229 M126.115 201.167 C 124.968 201.558,123.798 202.054,123.515 202.269 C 123.232 202.484,122.255 202.873,121.344 203.133 C 119.485 203.664,116.800 206.304,116.800 207.601 C 116.800 209.879,120.882 210.868,123.400 209.200 C 124.398 208.539,125.281 208.405,128.638 208.403 C 133.560 208.399,134.000 208.095,134.000 204.685 C 134.000 200.645,131.248 199.417,126.115 201.167 M76.453 201.371 C 77.472 201.680,79.322 202.398,80.565 202.967 C 81.807 203.535,83.187 204.000,83.631 204.000 C 84.729 204.000,86.400 205.887,86.400 207.127 C 86.400 209.699,83.252 210.440,80.383 208.542 C 78.866 207.537,78.610 207.497,75.373 207.745 C 70.811 208.096,70.400 207.854,70.400 204.815 C 70.400 201.128,72.227 200.089,76.453 201.371 M132.618 201.782 C 133.393 202.557,133.600 203.176,133.600 204.720 C 133.600 207.684,132.958 208.078,128.669 207.749 C 125.384 207.496,125.138 207.535,123.617 208.542 C 119.207 211.460,115.334 208.582,119.066 205.160 C 122.370 202.130,130.852 200.016,132.618 201.782 M82.014 221.174 C 81.786 221.599,81.582 222.814,81.560 223.874 C 81.464 228.503,80.415 229.273,74.188 229.286 C 71.665 229.291,69.600 229.422,69.600 229.578 C 69.600 229.945,78.474 230.009,79.000 229.646 C 79.220 229.494,79.940 229.314,80.600 229.246 C 82.223 229.079,82.172 229.207,82.191 225.280 C 82.200 223.366,82.351 221.575,82.527 221.300 C 82.865 220.773,118.788 220.540,120.700 221.052 C 121.524 221.273,121.600 221.529,121.600 224.065 C 121.600 228.468,122.117 228.800,128.962 228.800 C 133.534 228.800,134.416 228.900,134.725 229.451 C 134.974 229.897,135.178 229.960,135.368 229.651 C 135.522 229.403,135.997 229.200,136.424 229.200 C 136.905 229.200,137.200 228.926,137.200 228.480 C 137.200 228.084,137.416 227.544,137.680 227.280 C 138.053 226.907,138.053 226.800,137.680 226.800 C 137.416 226.800,137.200 226.944,137.200 227.120 C 137.200 227.915,134.213 228.400,129.316 228.400 C 122.720 228.400,122.417 228.223,122.109 224.185 C 121.793 220.049,123.678 220.400,101.765 220.400 C 83.057 220.400,82.415 220.425,82.014 221.174 " stroke="none" fill="#8ddedd" fill-rule="evenodd"></path><path id="path4" d="M146.900 172.687 C 147.505 172.778,148.495 172.778,149.100 172.687 C 149.705 172.595,149.210 172.520,148.000 172.520 C 146.790 172.520,146.295 172.595,146.900 172.687 M335.448 175.500 C 334.853 179.839,335.189 221.200,335.819 221.200 C 336.336 221.200,336.409 218.169,336.394 197.400 C 336.377 175.589,336.152 170.368,335.448 175.500 M133.858 180.400 C 133.555 186.376,133.680 188.000,134.443 188.000 C 134.853 188.000,134.856 179.679,134.446 176.400 C 134.220 174.591,134.115 175.302,133.858 180.400 M153.684 182.293 C 153.039 182.523,153.031 194.400,153.675 194.400 C 153.930 194.400,154.025 192.294,153.938 188.610 C 153.821 183.708,153.892 182.801,154.400 182.700 C 154.731 182.635,154.821 182.475,154.600 182.345 C 154.380 182.214,153.968 182.191,153.684 182.293 M157.422 182.355 C 157.788 182.721,160.013 182.744,159.788 182.380 C 159.677 182.201,159.047 182.069,158.387 182.088 C 157.728 182.107,157.294 182.227,157.422 182.355 M161.200 183.200 C 161.200 183.420,161.470 183.600,161.800 183.600 C 162.130 183.600,162.400 183.420,162.400 183.200 C 162.400 182.980,162.130 182.800,161.800 182.800 C 161.470 182.800,161.200 182.980,161.200 183.200 M231.554 186.200 C 231.289 187.550,231.437 188.800,231.863 188.800 C 232.712 188.800,232.857 188.059,232.234 186.909 C 231.903 186.299,231.597 185.980,231.554 186.200 M311.600 188.554 C 311.600 189.675,311.731 189.924,312.222 189.736 C 312.956 189.455,312.860 187.547,312.100 187.298 C 311.763 187.187,311.600 187.597,311.600 188.554 M320.628 190.876 C 320.298 193.363,320.413 213.561,320.758 213.774 C 320.891 213.856,321.017 208.270,321.037 201.361 C 321.076 188.051,321.059 187.621,320.628 190.876 M255.492 194.769 C 255.377 195.210,255.506 195.756,255.779 195.983 C 256.154 196.293,256.263 196.154,256.224 195.417 C 256.155 194.121,255.754 193.767,255.492 194.769 M205.396 194.807 C 205.258 195.030,204.932 195.091,204.672 194.942 C 204.413 194.794,204.340 194.825,204.510 195.013 C 205.077 195.636,206.400 195.625,206.400 194.997 C 206.400 194.317,205.772 194.198,205.396 194.807 M293.862 195.531 C 293.120 196.351,293.017 196.800,293.571 196.800 C 294.052 196.800,295.200 195.652,295.200 195.171 C 295.200 194.574,294.576 194.742,293.862 195.531 M191.275 195.625 C 191.371 195.914,191.686 196.229,191.975 196.325 C 192.275 196.425,192.425 196.275,192.325 195.975 C 192.229 195.686,191.914 195.371,191.625 195.275 C 191.325 195.175,191.175 195.325,191.275 195.625 M288.800 196.229 C 288.800 196.354,289.070 196.727,289.400 197.057 C 290.051 197.708,290.133 197.611,289.757 196.633 C 289.529 196.038,288.800 195.730,288.800 196.229 M207.613 197.700 C 207.606 198.305,207.769 198.800,207.976 198.800 C 208.673 198.800,208.778 198.123,208.200 197.359 C 207.656 196.640,207.625 196.658,207.613 197.700 M208.400 200.213 C 208.400 200.536,208.670 200.800,209.000 200.800 C 209.330 200.800,209.600 200.639,209.600 200.443 C 209.600 200.246,209.330 199.982,209.000 199.855 C 208.635 199.715,208.400 199.855,208.400 200.213 M164.900 203.716 C 164.405 203.940,164.000 204.275,164.000 204.461 C 164.000 204.918,164.696 204.892,164.985 204.425 C 165.112 204.218,165.573 204.118,166.008 204.202 C 166.444 204.285,166.800 204.204,166.800 204.020 C 166.800 203.446,165.839 203.293,164.900 203.716 M232.890 211.467 C 232.840 215.024,232.684 218.264,232.541 218.667 C 232.348 219.213,232.402 219.290,232.751 218.970 C 233.084 218.665,233.185 216.572,233.100 211.770 L 232.979 205.000 232.890 211.467 M326.509 208.000 C 326.509 208.990,326.587 209.395,326.682 208.900 C 326.778 208.405,326.778 207.595,326.682 207.100 C 326.587 206.605,326.509 207.010,326.509 208.000 M75.505 207.083 C 76.002 207.179,76.722 207.175,77.105 207.075 C 77.487 206.975,77.080 206.896,76.200 206.901 C 75.320 206.905,75.007 206.987,75.505 207.083 M153.043 207.433 C 152.667 208.411,152.749 208.508,153.400 207.857 C 154.080 207.177,154.167 206.800,153.643 206.800 C 153.446 206.800,153.176 207.085,153.043 207.433 M326.000 212.000 C 326.000 213.100,326.180 214.000,326.400 214.000 C 326.620 214.000,326.800 213.100,326.800 212.000 C 326.800 210.900,326.620 210.000,326.400 210.000 C 326.180 210.000,326.000 210.900,326.000 212.000 M214.400 211.400 C 214.400 211.730,214.558 212.000,214.751 212.000 C 214.944 212.000,215.326 211.730,215.600 211.400 C 216.016 210.899,215.958 210.800,215.249 210.800 C 214.761 210.800,214.400 211.055,214.400 211.400 M216.400 211.124 C 216.400 211.339,216.685 211.624,217.033 211.757 C 217.423 211.907,217.606 211.818,217.508 211.525 C 217.309 210.927,216.400 210.598,216.400 211.124 M326.509 216.000 C 326.509 216.990,326.587 217.395,326.682 216.900 C 326.778 216.405,326.778 215.595,326.682 215.100 C 326.587 214.605,326.509 215.010,326.509 216.000 M311.600 220.049 C 311.600 220.755,311.700 220.815,312.196 220.404 C 312.798 219.904,312.669 219.200,311.976 219.200 C 311.769 219.200,311.600 219.582,311.600 220.049 M134.138 234.624 C 134.375 239.767,134.800 239.923,134.800 234.867 C 134.800 232.300,134.646 230.800,134.381 230.800 C 134.106 230.800,134.023 232.114,134.138 234.624 " stroke="none" fill="#f4ece6" fill-rule="evenodd"></path></g></svg>