<?xml version="1.0" standalone="no"?>
<!DOCTYPE svg PUBLIC "-//W3C//DTD SVG 20010904//EN"
 "http://www.w3.org/TR/2001/REC-SVG-20010904/DTD/svg10.dtd">
<svg version="1.0" xmlns="http://www.w3.org/2000/svg"
 width="50.000000pt" height="50.000000pt" viewBox="0 0 50.000000 50.000000"
 preserveAspectRatio="xMidYMid meet">
<g transform="translate(0.000000,50.000000) scale(0.100000,-0.100000)"
fill="#000000" stroke="none">
<path d="M106 404 c-9 -8 -19 -27 -22 -42 -12 -55 -15 -61 -37 -64 -27 -4 -37
-47 -13 -60 13 -7 16 -26 16 -88 l0 -80 35 0 c24 0 35 5 35 15 0 13 21 15 130
15 109 0 130 -2 130 -15 0 -10 11 -15 35 -15 l35 0 0 79 c0 62 3 80 16 85 24
9 14 60 -12 64 -17 2 -25 14 -33 47 -18 72 -25 75 -171 75 -103 0 -132 -3
-144 -16z m282 -21 c6 -10 13 -33 17 -50 l7 -33 -162 0 -162 0 7 33 c15 68 13
67 155 67 113 0 130 -2 138 -17z m75 -103 c11 0 9 -30 -2 -30 -6 0 -13 5 -16
10 -15 24 -20 5 -17 -66 l4 -75 -44 3 c-37 3 -43 6 -46 28 -6 42 -20 50 -91
50 -74 0 -91 -10 -91 -52 0 -27 -2 -28 -46 -28 l-46 0 4 75 c3 71 -2 89 -18
64 -4 -8 -9 -8 -18 1 -8 8 -8 13 1 18 8 5 309 7 426 2z m-143 -114 c0 -8 3
-21 6 -30 5 -14 -5 -16 -75 -16 -45 0 -81 3 -81 8 0 4 3 17 6 30 6 20 12 22
75 22 53 0 69 -3 69 -14z"/>
<path d="M111 251 c-14 -4 -27 -13 -29 -21 -4 -13 -3 -13 10 -2 13 10 19 10
33 -4 15 -15 15 -18 1 -32 -12 -13 -18 -13 -30 -2 -9 7 -16 8 -16 2 0 -5 6
-15 14 -21 11 -9 17 -8 30 4 8 9 19 16 23 16 4 1 6 6 4 12 -2 7 -4 17 -4 24 0
7 -5 9 -10 6 -6 -4 -8 0 -4 10 3 10 5 17 4 16 -1 -1 -13 -4 -26 -8z"/>
<path d="M372 248 c-24 -31 -22 -54 5 -79 14 -13 23 -19 20 -13 -4 7 0 14 8
18 8 3 15 11 15 17 0 8 -4 8 -15 -1 -18 -15 -35 -5 -35 22 0 16 5 19 25 16 21
-4 23 -3 14 13 -11 22 -23 24 -37 7z"/>
</g>
</svg>
