<?xml version="1.0" standalone="no"?>
<!DOCTYPE svg PUBLIC "-//W3C//DTD SVG 20010904//EN"
 "http://www.w3.org/TR/2001/REC-SVG-20010904/DTD/svg10.dtd">
<svg version="1.0" xmlns="http://www.w3.org/2000/svg"
 width="67.000000pt" height="67.000000pt" viewBox="0 0 67.000000 67.000000"
 preserveAspectRatio="xMidYMid meet">
<g transform="translate(0.000000,67.000000) scale(0.100000,-0.100000)"
fill="#000000" stroke="none">
<path d="M179 632 c-80 -51 -110 -128 -85 -215 28 -95 106 -147 221 -147 36 0
81 -7 100 -14 31 -13 35 -20 35 -50 0 -59 -21 -66 -197 -66 -109 0 -153 -3
-153 -12 0 -23 54 -81 94 -99 58 -26 224 -26 282 0 114 52 145 203 61 298 -46
52 -98 73 -185 73 -99 0 -132 18 -132 71 0 52 22 59 183 59 81 0 147 4 147 9
0 23 -50 79 -90 99 -37 18 -61 22 -140 22 -88 0 -100 -2 -141 -28z m228 5 c38
-10 84 -41 79 -54 -3 -8 1 -10 11 -6 10 4 14 2 12 -6 -3 -7 -8 -12 -12 -12 -4
1 -16 1 -27 1 -11 0 -20 7 -20 15 0 8 -5 15 -11 15 -6 0 -9 6 -6 14 3 8 -1 17
-9 20 -12 5 -12 1 0 -28 8 -19 12 -37 8 -40 -8 -9 -114 -7 -108 2 2 4 -5 9
-17 9 -17 2 -18 0 -7 -7 10 -6 5 -9 -18 -8 -35 1 -68 -28 -79 -70 -4 -18 -8
-20 -14 -10 -7 10 -9 10 -9 0 0 -7 7 -15 15 -18 8 -4 15 -12 15 -20 0 -22 48
-47 98 -50 110 -8 153 -14 165 -24 39 -33 54 -48 72 -69 12 -15 14 -21 5 -16
-13 8 -13 6 -2 -8 20 -24 21 -83 3 -135 -15 -41 -46 -73 -40 -41 4 24 -14 93
-32 127 -11 17 -19 35 -19 39 0 4 -6 8 -14 9 -8 1 -31 8 -51 14 -21 7 -52 10
-70 7 -20 -3 -41 0 -51 7 -10 7 -25 11 -35 9 -9 -3 -27 5 -38 16 -12 12 -21
16 -21 10 0 -5 -5 -7 -11 -4 -6 4 -8 13 -5 21 7 17 -10 28 -18 12 -4 -7 -4 -3
-2 9 3 16 0 20 -11 16 -13 -5 -13 -2 -4 15 10 19 9 21 -5 15 -12 -4 -15 -3
-10 5 4 7 2 12 -5 12 -10 0 -10 3 -2 11 6 6 9 19 6 28 -3 9 9 0 26 -19 17 -19
29 -41 26 -48 -3 -8 0 -10 7 -6 8 5 9 1 4 -12 -4 -10 -4 -15 0 -11 10 10 35
-13 27 -26 -4 -6 -1 -7 7 -2 10 6 12 4 7 -8 -5 -14 19 -34 30 -24 2 2 -27 46
-63 98 -66 93 -80 123 -57 124 6 0 15 4 20 9 5 5 3 6 -5 2 -14 -8 -12 28 3 41
4 5 4 1 0 -7 -5 -8 4 -2 19 13 15 16 33 26 41 23 8 -3 17 0 21 6 5 7 2 8 -7 3
-10 -5 -11 -5 -4 3 6 5 19 12 30 15 24 6 131 2 162 -6z m73 -477 c-7 -13 -8
-20 -2 -16 16 10 25 -13 11 -30 -10 -12 -9 -13 3 -9 12 5 14 0 11 -19 -7 -33
-62 -55 -149 -57 -64 -2 -69 0 -96 30 -16 18 -26 37 -22 43 5 7 2 8 -6 3 -9
-5 -11 -4 -6 4 6 8 36 12 96 10 73 -1 92 1 112 17 14 11 26 24 29 29 2 6 7 9
12 8 4 -2 7 2 7 9 0 6 3 9 6 6 3 -4 0 -16 -6 -28z m-257 -76 c10 -21 26 -45
35 -51 25 -20 0 -15 -54 11 -42 20 -84 60 -84 80 0 3 19 4 42 2 37 -3 43 -7
61 -42z"/>
<path d="M236 382 c-3 -4 4 -9 15 -9 23 -2 25 3 4 10 -8 4 -16 3 -19 -1z"/>
<path d="M450 131 c0 -7 -5 -9 -12 -5 -7 5 -8 3 -3 -5 5 -9 10 -10 18 -2 6 6
8 14 4 18 -4 3 -7 1 -7 -6z"/>
<path d="M85 611 c-3 -5 -2 -12 3 -15 5 -3 9 1 9 9 0 17 -3 19 -12 6z"/>
<path d="M100 305 c13 -14 26 -25 28 -25 3 0 -5 11 -18 25 -13 14 -26 25 -28
25 -3 0 5 -11 18 -25z"/>
</g>
</svg>
